<svg viewBox="0 0 120 120" width="512" height="512" xmlns="http://www.w3.org/2000/svg">
<style>.o{stroke:#262019;stroke-width:4;stroke-linejoin:round;stroke-linecap:round}</style>
<defs>
<filter id="b3" x="-20%" y="-20%" width="140%" height="140%">
  <feTurbulence type="turbulence" baseFrequency="0.08" numOctaves="3" seed="27" result="n"/>
  <feDisplacementMap in="SourceGraphic" in2="n" scale="6"/>
</filter>
<g id="f-busa">
  <ellipse cx="-9" cy="0" rx="3.6" ry="5" fill="#262019"/>
  <ellipse cx="9" cy="1" rx="3.2" ry="4.4" fill="#262019"/>
  <circle cx="-8" cy="-1.5" r="1.1" fill="#fff"/>
  <circle cx="9.8" cy="-0.4" r="1" fill="#fff"/>
  <path d="M-6 8 q3 3.5 6 0 q3 3.5 6 0" fill="none" stroke="#262019" stroke-width="2.4" stroke-linecap="round"/>
  <circle cx="-17" cy="6" r="3.6" fill="#ef9a94" opacity=".7"/>
  <circle cx="17" cy="6" r="3.6" fill="#ef9a94" opacity=".7"/>
</g>
</defs>
<rect width="120" height="120" rx="26" fill="#f8f2e4"/>
<g filter="url(#b3)">
  <path d="M52 28 h16 v12 q20 6 20 30 a28 29 0 0 1 -56 0 q0 -24 20 -30 z" fill="#f7efdc" class="o"/>
  <rect x="49" y="23" width="22" height="8" rx="4" fill="#3b5b8c" class="o" stroke-width="3"/>
  <path d="M42 50 q18 -9 36 0" fill="none" stroke="#c9403a" stroke-width="7" stroke-linecap="round"/>
  <use href="#f-busa" transform="translate(60,64)"/>
</g>
</svg>
